<svg xmlns="http://www.w3.org/2000/svg" viewBox="0 0 375 313.54"><defs><style>.cls-1{fill:#aee4ed;}.cls-2{fill:#30c5cc;}.cls-3{fill:#3d9cff;}.cls-4{fill:#0b9b9b;}.cls-5{fill:#c6f4ff;}.cls-6{fill:#db5a28;}.cls-7{fill:#2f2f8e;}.cls-8{fill:#4c49a2;}.cls-9{fill:#fff;}.cls-10{fill:#e67750;}.cls-11{fill:#efefef;}.cls-12{fill:#fd9e71;}.cls-13{fill:#201251;}.cls-14{fill:#31d0a8;}.cls-15{fill:#feba40;}.cls-16{fill:#fedb9b;}.cls-17{fill:#4cb0dd;}.cls-18{fill:#75d5ef;}.cls-19{fill:#fdbe44;}.cls-20{fill:#98dbe5;}.cls-21{fill:#86d2e8;}.cls-22{fill:#f6fffa;}.cls-23{fill:#ffe780;}.cls-24{fill:#1fb288;}.cls-25{fill:#9e472d;}.cls-26{fill:#262845;}.cls-27{fill:#6aa5cc;}.cls-28{fill:#96c4ea;}.cls-29{fill:#1a133a;}.cls-30{fill:#e79673;}</style></defs><title>2638285</title><g id="OBJECTS"><path class="cls-1" d="M143.42,283.66c0,3.31-20.33,6-45.4,6s-45.39-2.68-45.39-6,20.32-6,45.39-6S143.42,280.36,143.42,283.66Z"/><ellipse class="cls-1" cx="303.04" cy="276.18" rx="45.89" ry="4.49"/><polygon class="cls-2" points="19.13 225.42 13.72 225.42 13.72 220.02 10.35 220.02 10.35 225.42 4.95 225.42 4.95 228.79 10.35 228.79 10.35 234.2 13.72 234.2 13.72 228.79 19.13 228.79 19.13 225.42"/><path class="cls-3" d="M24.05,215.48a3.34,3.34,0,1,1-3.34-3.34A3.35,3.35,0,0,1,24.05,215.48Z"/><rect class="cls-2" x="30.24" y="25.28" width="291.22" height="233.44" rx="18.48" ry="18.48"/><rect class="cls-4" x="67.45" y="5.19" width="216.82" height="273.62" rx="12.01" ry="12.01" transform="translate(317.85 -33.85) rotate(90)"/><rect class="cls-5" x="46.22" y="39.86" width="259.28" height="204.28" rx="7.76" ry="7.76"/><path class="cls-4" d="M12.76,243.69a33.32,33.32,0,0,0,28.46,16.1H310.49A33.32,33.32,0,0,0,339,243.69Z"/><path class="cls-2" d="M16.24,248.41H335.47a33.59,33.59,0,0,0,3.48-4.72H12.76A33.59,33.59,0,0,0,16.24,248.41Z"/><rect class="cls-6" x="66.6" y="161.29" width="72.49" height="40.57"/><rect class="cls-2" x="137.51" y="57.44" width="27.27" height="3.76"/><rect class="cls-2" x="102.25" y="57.44" width="16.65" height="3.76"/><rect class="cls-2" x="64.23" y="57.44" width="32.98" height="3.76"/><rect class="cls-2" x="124.11" y="57.44" width="7.15" height="3.76"/><rect class="cls-2" x="171.72" y="57.44" width="16.59" height="3.76"/><rect class="cls-2" x="137.51" y="68.41" width="10.23" height="3.76"/><rect class="cls-2" x="151.81" y="68.41" width="10.23" height="3.76"/><rect class="cls-2" x="85.29" y="68.41" width="16.65" height="3.76"/><rect class="cls-2" x="64.23" y="68.41" width="16.33" height="3.76"/><rect class="cls-2" x="106.5" y="68.41" width="27.42" height="3.76"/><path class="cls-7" d="M112.32,276.77c-1.72-5.53-5.07-28.94-5.82-38.11C106.35,236.72,85,228.38,85,228.38,72.53,228.07,66.1,233,66.1,233l30,10.12c0,13.53,11.53,33.92,11.53,33.92Z"/><path class="cls-8" d="M86.6,245.78l-8.9,31,5.08,1.11c2.22-7.32,15-32.39,15.38-35.37.15-1.27.06-2.25-.42-2.65s-14.84-9-19-9.92c-5.59-1.26-13.89-3.27-13.89-3.27a16.7,16.7,0,0,0-3.77,12.86C62,247.51,86.6,245.78,86.6,245.78Z"/><path class="cls-9" d="M74.58,191.25s-9.75.87-10.2,3.53S69,214.27,69,214.27l-5,13.23S78.15,231,85,228.38c.65.3,1.76-13.89,1.76-13.89l2.45-7L92.32,218l7.09,10,4.66-3.77-5.17-9.09s-8-18.26-10.13-20.38C84.78,190.79,74.58,191.25,74.58,191.25Z"/><path class="cls-10" d="M82.32,192l-.76-10H74.25v9.37c-.93.1,1,7.59,6.89,7.59C81.14,198.88,83.89,197.88,82.32,192Z"/><path class="cls-11" d="M67.49,209c.85,3,1.55,5.32,1.55,5.32l-5,13.23s10.71,2.64,18,1.6c-.65-.48-9.29-6.3-9.72-8.84C71.48,214.94,67.49,209,67.49,209Z"/><path class="cls-12" d="M88.83,171.79c-.62-2.57-4.62-3.32-11-2.57-4.31.5-5.28,4.47-5.4,7.42l-.19,0a3.47,3.47,0,0,0-1.61,5.61A3.57,3.57,0,0,0,73.28,184a3.39,3.39,0,0,0,.9,0c1.79,3.73,5.08,8.38,9.7,7.83C90.65,187,88.83,171.79,88.83,171.79Z"/><path class="cls-13" d="M74.33,178.55a4.91,4.91,0,0,1,1.76-5.73c3.15-2.37,3.37,1.13,6.69,1.56s6.61.16,6.26,2.36c2-5-.9-7.81-4.16-9.37s-8.35-2.23-11.89.72-3.07,10.06-3.07,10.06C72.26,177,72.89,177.93,74.33,178.55Z"/><path class="cls-13" d="M73,168.09s-2.94-7.89-8.51-5.94-3.06,13.18-3.68,18.07-4.11,5.09-5.37,2.92c-2.32,4.43,6.8,8.93,9.77,4.67s1.26-15,3.16-16.13a3.69,3.69,0,0,1,3.81.33Z"/><path class="cls-9" d="M64.6,193.89c-2.34,1.35-6.65,17.5-6.65,20.16S78.72,230,78.72,230s1-3.27,3.18-3.94c-.45-.22-15.52-14.63-15.52-14.63l4-11.29S70.37,190.56,64.6,193.89Z"/><polygon class="cls-2" points="77.13 231.99 98.3 231.34 112.05 236.44 88.78 237.68 77.13 231.99"/><polygon class="cls-4" points="88.78 237.68 77.13 233.16 77.13 231.99 89.7 236.53 88.78 237.68"/><polygon class="cls-4" points="88.78 237.68 95.78 218.57 118.92 219.81 112.05 236.89 88.78 237.68"/><path class="cls-2" d="M103,227c-.69,1.38-.48,2.88.47,3.35s2.27-.26,3-1.63.48-2.88-.46-3.35S103.68,225.65,103,227Z"/><path class="cls-12" d="M81.9,226s8.42,6.65,7.53,7.1a10.48,10.48,0,0,1-6.65-.67c-2-1.11-4.06-2.49-4.06-2.49S79.46,226.24,81.9,226Z"/><path class="cls-13" d="M83,276.35c1.5,1.51,6.59,3.81,9.09,4.43,2.69.67,2.22,2.92.26,2.92-3.86,0-12.43-.48-16.66-.48-.67-2,.48-4.66,1.82-6.46C77.92,276.21,82.79,276.13,83,276.35Z"/><path class="cls-13" d="M113.38,276.35c1.49,1.51,6.58,3.81,9.09,4.43,2.68.67,2.21,2.92.25,2.92-3.86,0-12.43-.48-16.66-.48-.66-2,.48-4.66,1.83-6.46C108.3,276.21,113.16,276.13,113.38,276.35Z"/><rect class="cls-14" x="66.99" y="145.52" width="20.33" height="5.6"/><rect class="cls-14" x="118.76" y="145.52" width="20.33" height="5.6"/><rect class="cls-14" x="92.88" y="145.52" width="20.33" height="5.6"/><rect class="cls-15" x="137.28" y="45.02" width="66.33" height="24.71" transform="translate(-8.76 42.24) rotate(-13.78)"/><rect class="cls-16" x="139.2" y="49.83" width="48.85" height="3.42" transform="translate(-7.57 40.45) rotate(-13.78)"/><rect class="cls-16" x="140.76" y="56.68" width="40.82" height="3.42" transform="translate(-9.27 40.06) rotate(-13.78)"/><rect class="cls-16" x="142.65" y="65.69" width="19.37" height="3.42" transform="translate(-11.67 38.22) rotate(-13.78)"/><rect class="cls-9" x="182.82" y="50.19" width="10.37" height="3.41" transform="translate(-6.95 46.26) rotate(-13.78)"/><rect class="cls-9" x="66.22" y="80.31" width="72.35" height="59.04"/><rect class="cls-17" x="143.99" y="114.36" width="142.28" height="26.62"/><rect class="cls-9" x="243.51" y="118.21" width="38.5" height="18.92"/><rect class="cls-18" x="149.19" y="119.36" width="89" height="3.65"/><rect class="cls-18" x="149.19" y="125.84" width="89" height="3.65"/><rect class="cls-18" x="149.19" y="132.33" width="59.92" height="3.65"/><rect class="cls-9" x="144.02" y="160" width="136.73" height="64.15"/><rect class="cls-19" x="144.02" y="160" width="136.73" height="10.64"/><rect class="cls-20" x="147.34" y="185.76" width="78.95" height="5.41"/><rect class="cls-20" x="147.34" y="195.39" width="70.8" height="5.42"/><rect class="cls-20" x="147.34" y="205.02" width="47.75" height="5.42"/><rect class="cls-20" x="147.34" y="176.89" width="28.46" height="5.42"/><rect class="cls-21" x="233.98" y="176.63" width="41.3" height="41.3"/><path class="cls-22" d="M258.85,197a5.25,5.25,0,0,0,1-3.13v-3.16a5.26,5.26,0,0,0-10.52,0v3.16a5.23,5.23,0,0,0,1.14,3.26,12.42,12.42,0,0,0-8.28,11.7h26S267.23,199.43,258.85,197Z"/><circle class="cls-6" cx="151.09" cy="165.58" r="2.68"/><circle class="cls-23" cx="159.69" cy="165.58" r="2.68"/><circle class="cls-24" cx="169.66" cy="165.58" r="2.68"/><rect class="cls-6" x="234.2" y="54.87" width="47.89" height="47.89"/><path class="cls-25" d="M301.25,267.6s.41,1.26-3.45,3-7.94,1.14-8.94,2.62a8,8,0,0,0-1.24,2.89h22s-.17-6.07-2.66-8.77C307.26,267.94,301.25,267.6,301.25,267.6Z"/><path class="cls-25" d="M325.18,267.59s.4,1.21-3.31,2.91-7.64,1.09-8.6,2.52a7.85,7.85,0,0,0-1.19,2.77h21.14s-.16-5.84-2.56-8.43C331,267.92,325.18,267.59,325.18,267.59Z"/><polygon class="cls-9" points="296.92 152.03 280.96 154.83 269.73 130.81 286.92 129.4 296.92 152.03"/><path class="cls-26" d="M277,149.6h0C277,149.62,276.94,149.62,277,149.6Z"/><path class="cls-12" d="M308,107a21.37,21.37,0,0,0-2.1,8.06c0,2.7.34,6.6.55,8.7a1.21,1.21,0,0,0,1.56,1l3.15-1-.18,4.56,8.79-.15,1.91-18.44S314.28,101.7,308,107Z"/><path class="cls-13" d="M308.63,116.64s.49-3.65,3.24-2.9-.4,4.44-.4,4.44l2.63,4.74a8.13,8.13,0,0,0,6.14-.18s2.92-8.88,2.92-11.69-2.56-4.7-2.56-4.7-6.85-3.43-10.53-3.25a4.28,4.28,0,0,0-4,3.86s-1.4,2.8,0,4S308.63,116.64,308.63,116.64Z"/><path class="cls-27" d="M320.12,125.66l-.39,2.54-9.08,0S312.41,125.43,320.12,125.66Z"/><path class="cls-12" d="M281.31,148.34s.63-2-1.93-3.15a7.3,7.3,0,0,0-1.05-3.33c-.54-.54-.88,2.45-.88,2.45s-2.51-4.47-3.16-3.33,5.67,9.94,5.85,10.29S281.31,148.34,281.31,148.34Z"/><path class="cls-13" d="M304.92,177.22l-6.08,51.44,1.24,39.87,7.65-.54s2.16-21,2.34-26.24-1.41-13.32-1.41-13.32l7.72-31.8,1.28.23.36,31.33,7,39.8,6.43.31s.16-20.53-.37-25.61-3.27-15.26-3.27-15.26l2.8-32.44a25,25,0,0,0-2.22-18.12C327.78,176.93,304.92,177.22,304.92,177.22Z"/><path class="cls-28" d="M310.65,128.24s-10.87,3.5-12.86,5.49-7.68,22.47-7.68,22.47l-8.59-8.61-2.67,6.25s10.06,15,13.21,15.43,10.29-18.94,10.29-18.94.65,10.6,1.87,15.9a33.23,33.23,0,0,1,.7,11c9.73,1.77,18,1.4,23.5-.35l2.73-20.42s3.7.43,4.87-.86-4.21-22.44-5.38-24.08-10.91-3.31-10.91-3.31Z"/><path class="cls-27" d="M321.24,142.28c-.06-.42-.74-.32-.73.1a132.92,132.92,0,0,1-1.35,26.06c-.09.58.77.85.91.25A75.91,75.91,0,0,0,321.24,142.28Z"/><path class="cls-27" d="M331.22,148.79c-.06-.3-.51-.22-.51.07A87.19,87.19,0,0,1,329,164a53.73,53.73,0,0,0-1.36,13.55c0,.64,1,.65,1,0-.22-5.3.86-10.41,1.82-15.58C331.26,157.62,332.08,153.14,331.22,148.79Z"/><path class="cls-27" d="M303.35,148.63c-2.92,1.86-4,5.49-5.14,8.58-1.51,4.18-3,8.29-6.31,11.42-.49.47.24,1.19.74.74,6.08-5.47,5.79-14.41,11-20.39C303.77,148.8,303.57,148.49,303.35,148.63Z"/><path class="cls-25" d="M328.54,175.35s-14.73,1.87-23.62-.94c.24,0,0,2.81,0,2.81a44.68,44.68,0,0,0,24.32.94C329.14,178.11,328.54,175.35,328.54,175.35Z"/><path class="cls-29" d="M176.12,235.22s-1.22,2.66-3.33,3.11-7.65,1.66-8.53,2.44-.89,2.77-.89,2.77H181s0-5.33-1.05-8.1C180.33,235.44,176.12,235.22,176.12,235.22Z"/><path class="cls-29" d="M210,235.22s-1.21,2.66-3.32,3.11-7.65,1.66-8.54,2.44-.88,2.77-.88,2.77h17.59s0-5.33-1-8.1C214.25,235.44,210,235.22,210,235.22Z"/><path class="cls-30" d="M207.88,62.32s-4.9-1.25-5.2-.47S210.26,65,210.26,65l7.08,19.65-2.65,6.29,4.88,5.32s5.32-7.2,5.76-9.31S212.7,63.63,212.7,63.63s-2.6-8.25-3-8.64-5.08-.15-6.14-.13,3.09,4.22,3.09,4.22Z"/><path class="cls-30" d="M188.81,76.87A18,18,0,0,0,186,83.64a22.72,22.72,0,0,0,.17,6.82l4.28-.14v4H199a45.26,45.26,0,0,1,.5-4.69c.33-1.67,2.66-4.83,2.66-4.83L198.29,74l-5.49-.5Z"/><path class="cls-13" d="M191,82s1.5-3.49,3.32-2.16S193.8,84,193.8,84,195,88.79,197,89.46l2,.66s5.15-4.82,6-6.15-1.33-9-2.83-10.64-8-1.5-8.48-2.33-2.16-2.32-3.82-1.66-1.33,6.15-1.33,6.15,2.05,1.77,2.19,3.05a6.32,6.32,0,0,1-.82,3Z"/><path class="cls-13" d="M182.91,94.58s8.5-1.24,13.38-1.35,12.64,2.44,12.64,2.44l5.64-6,7.2,6.76s-6.13,9-8.1,11.15-3.41,12-3.86,15S208.26,143,208.26,143s-5.21,6.21-26.6-.56c-.22-.22.88-12.85.77-16s-2.88-13.63-3.43-16.18-9.39-7.65-9.39-7.65-1.1-6.21,3-9.2C173.12,93.78,182.91,94.58,182.91,94.58Z"/><path class="cls-30" d="M163.15,69.17s-3.22,3-3.44,4.22,4.42,15.1,4.42,15.1l8.46,5-3,9.2s-9.23-6.43-10.56-8.31-3.66-20.73-3.66-20.73-3-3.77-3.22-4.77-.92-4.26-.4-4.9,3.94-4.19,4.45-3.14,2.34,8.74,2.34,8.74S162.37,67.84,163.15,69.17Z"/><path class="cls-8" d="M181.66,142.44l-4.82,45.45-2.5,48.22,8.32.33s5.15-32,5.23-36.86-.08-10.69-.08-10.69l5.32-24.28h3l6.16,31.59,6.31,39.24,6.65.34s1-24.44,0-29.43-2.49-9.81-2.49-9.81l-3-32.76s2.66-11.64-1.5-20.78C207.43,141.34,181.66,142.44,181.66,142.44Z"/><polygon class="cls-19" points="130.86 90.74 125.46 90.74 125.46 85.34 122.09 85.34 122.09 90.74 116.68 90.74 116.68 94.11 122.09 94.11 122.09 99.52 125.46 99.52 125.46 94.11 130.86 94.11 130.86 90.74"/><path class="cls-2" d="M80.57,132.44A8.45,8.45,0,1,1,89,124,8.47,8.47,0,0,1,80.57,132.44Zm0-12.49a4,4,0,1,0,4,4A4.06,4.06,0,0,0,80.57,120Z"/><polygon class="cls-2" points="340.36 54.83 334.96 54.83 334.96 49.42 331.59 49.42 331.59 54.83 326.18 54.83 326.18 58.2 331.59 58.2 331.59 63.6 334.96 63.6 334.96 58.2 340.36 58.2 340.36 54.83"/><path class="cls-3" d="M313.36,18A3.34,3.34,0,1,1,310,14.61,3.35,3.35,0,0,1,313.36,18Z"/><path class="cls-15" d="M248.17,76.58a8.45,8.45,0,1,1,8.44-8.45A8.46,8.46,0,0,1,248.17,76.58Zm0-12.49a4,4,0,1,0,4,4A4,4,0,0,0,248.17,64.09Z"/><path class="cls-15" d="M293.06,20.71a8.45,8.45,0,1,1,8.45-8.45A8.46,8.46,0,0,1,293.06,20.71Zm0-12.49a4,4,0,1,0,4,4A4,4,0,0,0,293.06,8.22Z"/></g></svg>